<!DOCTYPE svg>
<svg xmlns="http://www.w3.org/2000/svg" height="1024" width="1024">
<polygon points="57,80 168,55 40,242 " style="fill:rgb(9,133,68);" />
<polygon points="40,242 129,147 34,361 " style="fill:rgb(171,254,52);" />
<polygon points="34,361 205,270 17,474 " style="fill:rgb(14,203,168);" />
<polygon points="17,474 230,391 114,605 " style="fill:rgb(108,232,99);" />
<polygon points="114,605 143,521 16,764 " style="fill:rgb(255,136,207);" />
<polygon points="16,764 211,665 97,805 " style="fill:rgb(144,171,232);" />
<polygon points="97,805 154,831 65,932 " style="fill:rgb(120,216,148);" />
<polygon points="168,55 272,99 129,147 " style="fill:rgb(40,235,190);" />
<polygon points="129,147 325,178 205,270 " style="fill:rgb(204,126,239);" />
<polygon points="129,147 40,242 168,55 " style="fill:rgb(243,60,128);" />
<polygon points="205,270 332,343 230,391 " style="fill:rgb(121,128,145);" />
<polygon points="205,270 34,361 129,147 " style="fill:rgb(119,180,154);" />
<polygon points="230,391 268,446 143,521 " style="fill:rgb(66,93,70);" />
<polygon points="230,391 17,474 205,270 " style="fill:rgb(42,192,84);" />
<polygon points="143,521 308,540 211,665 " style="fill:rgb(178,143,192);" />
<polygon points="143,521 114,605 230,391 " style="fill:rgb(93,120,191);" />
<polygon points="211,665 314,661 154,831 " style="fill:rgb(53,12,80);" />
<polygon points="211,665 16,764 143,521 " style="fill:rgb(33,202,200);" />
<polygon points="154,831 321,891 186,979 " style="fill:rgb(159,185,241);" />
<polygon points="154,831 97,805 211,665 " style="fill:rgb(219,57,189);" />
<polygon points="186,979 65,932 154,831 " style="fill:rgb(92,203,177);" />
<polygon points="272,99 435,59 325,178 " style="fill:rgb(16,101,42);" />
<polygon points="325,178 509,128 332,343 " style="fill:rgb(109,171,161);" />
<polygon points="325,178 129,147 272,99 " style="fill:rgb(46,0,227);" />
<polygon points="332,343 457,356 268,446 " style="fill:rgb(189,192,13);" />
<polygon points="332,343 205,270 325,178 " style="fill:rgb(53,128,191);" />
<polygon points="268,446 391,472 308,540 " style="fill:rgb(65,208,28);" />
<polygon points="268,446 230,391 332,343 " style="fill:rgb(12,152,81);" />
<polygon points="308,540 493,603 314,661 " style="fill:rgb(197,137,114);" />
<polygon points="308,540 143,521 268,446 " style="fill:rgb(255,71,18);" />
<polygon points="314,661 497,647 321,891 " style="fill:rgb(202,248,237);" />
<polygon points="314,661 211,665 308,540 " style="fill:rgb(47,34,73);" />
<polygon points="321,891 410,812 314,1002 " style="fill:rgb(219,195,90);" />
<polygon points="321,891 154,831 314,661 " style="fill:rgb(219,166,199);" />
<polygon points="314,1002 186,979 321,891 " style="fill:rgb(155,179,245);" />
<polygon points="435,59 527,32 509,128 " style="fill:rgb(27,114,179);" />
<polygon points="509,128 604,219 457,356 " style="fill:rgb(235,142,232);" />
<polygon points="509,128 325,178 435,59 " style="fill:rgb(132,223,42);" />
<polygon points="457,356 631,360 391,472 " style="fill:rgb(13,82,54);" />
<polygon points="457,356 332,343 509,128 " style="fill:rgb(84,100,251);" />
<polygon points="391,472 538,427 493,603 " style="fill:rgb(76,81,250);" />
<polygon points="391,472 268,446 457,356 " style="fill:rgb(110,155,196);" />
<polygon points="493,603 517,596 497,647 " style="fill:rgb(49,245,244);" />
<polygon points="493,603 308,540 391,472 " style="fill:rgb(215,188,207);" />
<polygon points="497,647 576,710 410,812 " style="fill:rgb(138,178,170);" />
<polygon points="497,647 314,661 493,603 " style="fill:rgb(252,101,69);" />
<polygon points="410,812 592,890 474,938 " style="fill:rgb(138,77,97);" />
<polygon points="410,812 321,891 497,647 " style="fill:rgb(106,119,76);" />
<polygon points="474,938 314,1002 410,812 " style="fill:rgb(188,173,208);" />
<polygon points="527,32 693,46 604,219 " style="fill:rgb(32,169,222);" />
<polygon points="604,219 643,254 631,360 " style="fill:rgb(113,163,50);" />
<polygon points="604,219 509,128 527,32 " style="fill:rgb(12,104,127);" />
<polygon points="631,360 658,266 538,427 " style="fill:rgb(1,92,237);" />
<polygon points="631,360 457,356 604,219 " style="fill:rgb(190,43,31);" />
<polygon points="538,427 726,511 517,596 " style="fill:rgb(112,213,246);" />
<polygon points="538,427 391,472 631,360 " style="fill:rgb(213,26,129);" />
<polygon points="517,596 741,584 576,710 " style="fill:rgb(34,123,125);" />
<polygon points="517,596 493,603 538,427 " style="fill:rgb(154,200,8);" />
<polygon points="576,710 646,640 592,890 " style="fill:rgb(71,152,114);" />
<polygon points="576,710 497,647 517,596 " style="fill:rgb(240,118,46);" />
<polygon points="592,890 756,864 560,899 " style="fill:rgb(148,169,78);" />
<polygon points="592,890 410,812 576,710 " style="fill:rgb(252,40,191);" />
<polygon points="560,899 474,938 592,890 " style="fill:rgb(88,21,204);" />
<polygon points="693,46 768,7 643,254 " style="fill:rgb(131,52,205);" />
<polygon points="643,254 862,247 658,266 " style="fill:rgb(88,43,139);" />
<polygon points="643,254 604,219 693,46 " style="fill:rgb(114,172,251);" />
<polygon points="658,266 879,376 726,511 " style="fill:rgb(238,41,208);" />
<polygon points="658,266 631,360 643,254 " style="fill:rgb(182,49,243);" />
<polygon points="726,511 802,500 741,584 " style="fill:rgb(78,163,141);" />
<polygon points="726,511 538,427 658,266 " style="fill:rgb(197,209,212);" />
<polygon points="741,584 845,611 646,640 " style="fill:rgb(110,31,197);" />
<polygon points="741,584 517,596 726,511 " style="fill:rgb(150,223,89);" />
<polygon points="646,640 827,669 756,864 " style="fill:rgb(171,171,85);" />
<polygon points="646,640 576,710 741,584 " style="fill:rgb(224,120,173);" />
<polygon points="756,864 861,875 682,899 " style="fill:rgb(11,4,48);" />
<polygon points="756,864 592,890 646,640 " style="fill:rgb(183,255,136);" />
<polygon points="682,899 560,899 756,864 " style="fill:rgb(224,208,250);" />
<polygon points="768,7 921,35 862,247 " style="fill:rgb(18,195,232);" />
<polygon points="862,247 913,171 879,376 " style="fill:rgb(181,80,158);" />
<polygon points="862,247 643,254 768,7 " style="fill:rgb(135,36,237);" />
<polygon points="879,376 941,360 802,500 " style="fill:rgb(166,233,178);" />
<polygon points="879,376 658,266 862,247 " style="fill:rgb(133,66,32);" />
<polygon points="802,500 938,403 845,611 " style="fill:rgb(48,151,182);" />
<polygon points="802,500 726,511 879,376 " style="fill:rgb(169,68,97);" />
<polygon points="845,611 944,560 827,669 " style="fill:rgb(173,116,65);" />
<polygon points="845,611 741,584 802,500 " style="fill:rgb(172,252,76);" />
<polygon points="827,669 915,676 861,875 " style="fill:rgb(124,247,3);" />
<polygon points="827,669 646,640 845,611 " style="fill:rgb(63,223,228);" />
<polygon points="861,875 913,829 800,915 " style="fill:rgb(143,126,246);" />
<polygon points="861,875 756,864 827,669 " style="fill:rgb(180,107,171);" />
<polygon points="800,915 682,899 861,875 " style="fill:rgb(157,29,50);" />
<polygon points="913,171 862,247 921,35 " style="fill:rgb(224,61,217);" />
<polygon points="941,360 879,376 913,171 " style="fill:rgb(119,243,94);" />
<polygon points="938,403 802,500 941,360 " style="fill:rgb(188,84,143);" />
<polygon points="944,560 845,611 938,403 " style="fill:rgb(48,150,56);" />
<polygon points="915,676 827,669 944,560 " style="fill:rgb(45,226,229);" />
<polygon points="913,829 861,875 915,676 " style="fill:rgb(36,230,145);" />
<polygon points="935,913 800,915 913,829 " style="fill:rgb(3,202,14);" />
</svg>
