<!DOCTYPE svg>
<svg xmlns="http://www.w3.org/2000/svg" height="1024" width="1024">
<polygon points="90,99 173,52 86,240 " style="fill:rgb(35,192,195);" />
<polygon points="86,240 153,139 12,320 " style="fill:rgb(24,73,165);" />
<polygon points="12,320 214,296 31,443 " style="fill:rgb(63,52,111);" />
<polygon points="31,443 253,486 0,578 " style="fill:rgb(136,209,140);" />
<polygon points="0,578 235,561 13,745 " style="fill:rgb(250,38,19);" />
<polygon points="13,745 228,703 38,816 " style="fill:rgb(69,142,168);" />
<polygon points="38,816 163,771 55,1017 " style="fill:rgb(5,204,236);" />
<polygon points="173,52 358,112 153,139 " style="fill:rgb(148,132,177);" />
<polygon points="153,139 366,242 214,296 " style="fill:rgb(104,97,108);" />
<polygon points="214,296 304,269 253,486 " style="fill:rgb(231,240,15);" />
<polygon points="253,486 301,433 235,561 " style="fill:rgb(167,180,252);" />
<polygon points="235,561 335,570 228,703 " style="fill:rgb(241,89,31);" />
<polygon points="228,703 282,757 163,771 " style="fill:rgb(37,201,55);" />
<polygon points="163,771 362,849 154,1021 " style="fill:rgb(246,85,119);" />
<polygon points="358,112 389,7 366,242 " style="fill:rgb(28,104,255);" />
<polygon points="366,242 419,219 304,269 " style="fill:rgb(170,16,250);" />
<polygon points="304,269 432,289 301,433 " style="fill:rgb(118,252,63);" />
<polygon points="301,433 449,411 335,570 " style="fill:rgb(251,173,68);" />
<polygon points="335,570 466,550 282,757 " style="fill:rgb(92,25,216);" />
<polygon points="282,757 475,757 362,849 " style="fill:rgb(76,40,64);" />
<polygon points="362,849 425,885 366,920 " style="fill:rgb(0,36,39);" />
<polygon points="389,7 614,96 419,219 " style="fill:rgb(90,68,207);" />
<polygon points="419,219 513,150 432,289 " style="fill:rgb(35,123,192);" />
<polygon points="432,289 622,302 449,411 " style="fill:rgb(120,242,229);" />
<polygon points="449,411 583,445 466,550 " style="fill:rgb(224,242,219);" />
<polygon points="466,550 616,609 475,757 " style="fill:rgb(240,236,247);" />
<polygon points="475,757 563,722 425,885 " style="fill:rgb(236,43,161);" />
<polygon points="425,885 562,801 498,911 " style="fill:rgb(153,112,24);" />
<polygon points="614,96 681,14 513,150 " style="fill:rgb(178,72,19);" />
<polygon points="513,150 659,217 622,302 " style="fill:rgb(218,137,111);" />
<polygon points="622,302 687,341 583,445 " style="fill:rgb(255,176,187);" />
<polygon points="583,445 756,385 616,609 " style="fill:rgb(67,127,188);" />
<polygon points="616,609 763,591 563,722 " style="fill:rgb(190,63,22);" />
<polygon points="563,722 758,676 562,801 " style="fill:rgb(177,36,57);" />
<polygon points="562,801 709,872 618,952 " style="fill:rgb(163,255,177);" />
<polygon points="681,14 841,52 659,217 " style="fill:rgb(143,246,145);" />
<polygon points="659,217 833,183 687,341 " style="fill:rgb(186,152,129);" />
<polygon points="687,341 866,265 756,385 " style="fill:rgb(42,176,109);" />
<polygon points="756,385 884,458 763,591 " style="fill:rgb(115,195,6);" />
<polygon points="763,591 874,551 758,676 " style="fill:rgb(252,50,184);" />
<polygon points="758,676 796,669 709,872 " style="fill:rgb(172,237,146);" />
<polygon points="709,872 841,775 691,939 " style="fill:rgb(44,169,145);" />
<polygon points="841,52 917,104 833,183 " style="fill:rgb(107,191,212);" />
<polygon points="833,183 971,196 866,265 " style="fill:rgb(144,248,147);" />
<polygon points="866,265 957,319 884,458 " style="fill:rgb(143,169,68);" />
<polygon points="884,458 965,440 874,551 " style="fill:rgb(134,58,231);" />
<polygon points="874,551 911,571 796,669 " style="fill:rgb(30,187,118);" />
<polygon points="796,669 988,724 841,775 " style="fill:rgb(206,40,48);" />
<polygon points="841,775 931,783 853,1010 " style="fill:rgb(145,46,91);" />
</svg>
